<svg width="20" height="29" viewBox="0 0 20 29" fill="none" xmlns="http://www.w3.org/2000/svg">
<mask id="path-1-inside-1_7_57" fill="white">
<path fill-rule="evenodd" clip-rule="evenodd" d="M15.7746 13.9748C15.0469 13.6073 14.6151 12.835 14.6831 12.0226L15.503 2.23133C15.653 0.439116 13.5457 -0.625024 12.1925 0.559667L1.60487 9.82904C0.53799 10.7631 0.755028 12.48 2.02078 13.1191L4.25507 14.2474C4.98276 14.6148 5.4146 15.3872 5.34658 16.1995L4.52671 25.9908C4.37664 27.7831 6.484 28.8472 7.83717 27.6625L18.4248 18.3931C19.4917 17.4591 19.2746 15.7422 18.0089 15.1031L15.7746 13.9748Z"/>
</mask>
<path fill-rule="evenodd" clip-rule="evenodd" d="M15.7746 13.9748C15.0469 13.6073 14.6151 12.835 14.6831 12.0226L15.503 2.23133C15.653 0.439116 13.5457 -0.625024 12.1925 0.559667L1.60487 9.82904C0.53799 10.7631 0.755028 12.48 2.02078 13.1191L4.25507 14.2474C4.98276 14.6148 5.4146 15.3872 5.34658 16.1995L4.52671 25.9908C4.37664 27.7831 6.484 28.8472 7.83717 27.6625L18.4248 18.3931C19.4917 17.4591 19.2746 15.7422 18.0089 15.1031L15.7746 13.9748Z" fill="url(#paint0_linear_7_57)"/>
<path d="M18.4248 18.3931L17.7661 17.6407L18.4248 18.3931ZM4.52671 25.9908L3.5302 25.9074L4.52671 25.9908ZM7.83717 27.6625L7.17846 26.9101L7.83717 27.6625ZM14.6831 12.0226L13.6866 11.9392L14.6831 12.0226ZM15.503 2.23133L14.5064 2.14789L15.503 2.23133ZM12.1925 0.559667L11.5338 -0.192727L12.1925 0.559667ZM14.5064 2.14789L13.6866 11.9392L15.6796 12.1061L16.4995 2.31478L14.5064 2.14789ZM2.26358 10.5814L12.8512 1.31206L11.5338 -0.192727L0.946155 9.07665L2.26358 10.5814ZM4.70583 13.3547L2.47154 12.2265L1.57002 14.0118L3.80431 15.14L4.70583 13.3547ZM5.52323 26.0743L6.34309 16.283L4.35007 16.1161L3.5302 25.9074L5.52323 26.0743ZM17.7661 17.6407L7.17846 26.9101L8.49588 28.4149L19.0835 19.1455L17.7661 17.6407ZM15.3238 14.8675L17.5581 15.9957L18.4597 14.2104L16.2254 13.0822L15.3238 14.8675ZM19.0835 19.1455C20.6838 17.7445 20.3583 15.1692 18.4597 14.2104L17.5581 15.9957C18.191 16.3153 18.2995 17.1737 17.7661 17.6407L19.0835 19.1455ZM3.5302 25.9074C3.3051 28.5957 6.46613 30.1919 8.49588 28.4149L7.17846 26.9101C6.50186 27.5025 5.44819 26.9704 5.52323 26.0743L3.5302 25.9074ZM3.80431 15.14C4.16816 15.3237 4.38408 15.7099 4.35007 16.1161L6.34309 16.283C6.44512 15.0644 5.79736 13.9059 4.70583 13.3547L3.80431 15.14ZM0.946155 9.07665C-0.654164 10.4777 -0.328606 13.053 1.57002 14.0118L2.47154 12.2265C1.83866 11.9069 1.73014 11.0485 2.26358 10.5814L0.946155 9.07665ZM13.6866 11.9392C13.5845 13.1577 14.2323 14.3163 15.3238 14.8675L16.2254 13.0822C15.8615 12.8984 15.6456 12.5123 15.6796 12.1061L13.6866 11.9392ZM16.4995 2.31478C16.7246 -0.373558 13.5635 -1.96976 11.5338 -0.192727L12.8512 1.31206C13.5278 0.719711 14.5815 1.25179 14.5064 2.14789L16.4995 2.31478Z" fill="white" mask="url(#path-1-inside-1_7_57)"/>
<defs>
<linearGradient id="paint0_linear_7_57" x1="16.4737" y1="1.32051" x2="3.55601" y2="26.9017" gradientUnits="userSpaceOnUse">
<stop stop-color="#28FF58"/>
<stop offset="1" stop-color="#BE00ED"/>
</linearGradient>
</defs>
</svg>
