<svg width="21" height="21" viewBox="0 0 21 21" fill="none" xmlns="http://www.w3.org/2000/svg">
<g clip-path="url(#clip0_34_47)">
<path d="M10.5 21C16.299 21 21 16.299 21 10.5C21 4.70101 16.299 0 10.5 0C4.70101 0 0 4.70101 0 10.5C0 16.299 4.70101 21 10.5 21Z" fill="#00C767" fill-opacity="0.25"/>
<g filter="url(#filter0_d_34_47)">
<path d="M10.5 17.0625C14.1244 17.0625 17.0625 14.1244 17.0625 10.5C17.0625 6.87563 14.1244 3.9375 10.5 3.9375C6.87563 3.9375 3.9375 6.87563 3.9375 10.5C3.9375 14.1244 6.87563 17.0625 10.5 17.0625Z" fill="#00C767"/>
</g>
<path fill-rule="evenodd" clip-rule="evenodd" d="M13.1947 7.16785C12.804 6.97665 12.3324 7.13835 12.1412 7.52897L9.98456 11.9353L8.67928 10.698C8.36362 10.3988 7.86519 10.4121 7.56599 10.7277C7.26676 11.0433 7.2801 11.5418 7.59573 11.841L9.67854 13.8153C9.99419 14.1145 10.4926 14.1012 10.7918 13.7856C10.8313 13.744 10.8653 13.6992 10.8939 13.6521C10.9068 13.631 10.9189 13.609 10.93 13.5863L13.5558 8.22137C13.747 7.83071 13.5854 7.35906 13.1947 7.16785Z" fill="white"/>
</g>
<defs>
<filter id="filter0_d_34_47" x="-8.0625" y="-8.0625" width="37.125" height="37.125" filterUnits="userSpaceOnUse" color-interpolation-filters="sRGB">
<feFlood flood-opacity="0" result="BackgroundImageFix"/>
<feColorMatrix in="SourceAlpha" type="matrix" values="0 0 0 0 0 0 0 0 0 0 0 0 0 0 0 0 0 0 127 0" result="hardAlpha"/>
<feOffset/>
<feGaussianBlur stdDeviation="6"/>
<feComposite in2="hardAlpha" operator="out"/>
<feColorMatrix type="matrix" values="0 0 0 0 0 0 0 0 0 1 0 0 0 0 0.4 0 0 0 0.3 0"/>
<feBlend mode="normal" in2="BackgroundImageFix" result="effect1_dropShadow_34_47"/>
<feBlend mode="normal" in="SourceGraphic" in2="effect1_dropShadow_34_47" result="shape"/>
</filter>
<clipPath id="clip0_34_47">
<rect width="21" height="21" fill="white"/>
</clipPath>
</defs>
</svg>
