<svg width="21" height="21" viewBox="0 0 21 21" fill="none" xmlns="http://www.w3.org/2000/svg">
<g clip-path="url(#clip0_34_73)">
<g clip-path="url(#clip1_34_73)">
<path d="M10.5 21C16.299 21 21 16.299 21 10.5C21 4.70101 16.299 0 10.5 0C4.70101 0 0 4.70101 0 10.5C0 16.299 4.70101 21 10.5 21Z" fill="#7A7A7A" fill-opacity="0.25"/>
<g filter="url(#filter0_d_34_73)">
<path d="M10.5 17.0625C14.1244 17.0625 17.0625 14.1244 17.0625 10.5C17.0625 6.87563 14.1244 3.9375 10.5 3.9375C6.87563 3.9375 3.9375 6.87563 3.9375 10.5C3.9375 14.1244 6.87563 17.0625 10.5 17.0625Z" fill="#B7B7B7"/>
</g>
</g>
</g>
<defs>
<filter id="filter0_d_34_73" x="-8.0625" y="-8.0625" width="37.125" height="37.125" filterUnits="userSpaceOnUse" color-interpolation-filters="sRGB">
<feFlood flood-opacity="0" result="BackgroundImageFix"/>
<feColorMatrix in="SourceAlpha" type="matrix" values="0 0 0 0 0 0 0 0 0 0 0 0 0 0 0 0 0 0 127 0" result="hardAlpha"/>
<feOffset/>
<feGaussianBlur stdDeviation="6"/>
<feComposite in2="hardAlpha" operator="out"/>
<feColorMatrix type="matrix" values="0 0 0 0 0.204167 0 0 0 0 0.204167 0 0 0 0 0.204167 0 0 0 0.3 0"/>
<feBlend mode="normal" in2="BackgroundImageFix" result="effect1_dropShadow_34_73"/>
<feBlend mode="normal" in="SourceGraphic" in2="effect1_dropShadow_34_73" result="shape"/>
</filter>
<clipPath id="clip0_34_73">
<rect width="21" height="21" fill="white"/>
</clipPath>
<clipPath id="clip1_34_73">
<rect width="21" height="21" fill="white"/>
</clipPath>
</defs>
</svg>
